<?xml version="1.0" standalone="no"?>
<!DOCTYPE svg PUBLIC "-//W3C//DTD SVG 20010904//EN"
 "http://www.w3.org/TR/2001/REC-SVG-20010904/DTD/svg10.dtd">
<svg version="1.0" xmlns="http://www.w3.org/2000/svg"
 width="210pt" height="200pt" viewBox="0 0 500 500"
 preserveAspectRatio="xMidYMid meet">

<g transform="translate(0.000000,500) scale(0.100000,-0.100000)"
fill="#000000" stroke="none">
<path d="M2345 3643 c-13 -85 -15 -87 -101 -102 -43 -7 -109 -24 -146 -37
l-68 -25 -32 37 c-18 21 -37 43 -43 50 -8 11 -25 5 -83 -30 -40 -24 -78 -48
-84 -54 -7 -7 -4 -28 10 -70 l20 -60 -50 -37 c-27 -21 -77 -69 -112 -108 l-63
-70 -59 21 -59 20 -32 -56 -32 -57 171 -3 171 -2 71 70 c84 83 151 130 260
181 116 54 185 70 327 76 96 4 145 2 210 -12 179 -36 335 -119 463 -247 l69
-68 171 2 172 3 -33 57 -33 57 -58 -20 -59 -20 -112 112 -113 112 22 55 21 56
-21 16 c-11 8 -50 31 -86 50 l-65 35 -42 -48 -42 -48 -55 19 c-47 16 -146 41
-227 58 -13 2 -23 11 -23 19 0 8 -5 37 -11 65 l-11 50 -98 0 -98 0 -7 -47z"/>
<path d="M2290 3345 c-173 -35 -338 -124 -455 -244 l-39 -41 43 0 c37 0 53 7
105 49 144 115 289 170 467 178 220 10 393 -48 559 -188 39 -33 53 -39 91 -39
l44 1 -76 72 c-192 182 -479 265 -739 212z"/>
<path d="M1117 2920 c-37 -30 -47 -77 -47 -230 0 -153 10 -200 47 -230 24 -18
39 -20 209 -20 l182 0 31 31 31 31 0 179 c0 196 -6 225 -55 247 -17 8 -86 12
-199 12 -159 0 -175 -2 -199 -20z m343 -230 l0 -140 -140 0 -140 0 0 140 0
140 140 0 140 0 0 -140z"/>
<path d="M1807 2920 c-39 -31 -47 -77 -47 -287 l0 -193 55 0 55 0 0 80 0 80
140 0 140 0 0 -80 0 -80 55 0 55 0 0 210 c0 300 9 290 -254 290 -159 0 -175
-2 -199 -20z m343 -150 l0 -61 -137 3 -138 3 -3 58 -3 57 141 0 140 0 0 -60z"/>
<path d="M2490 2912 c-53 -53 -53 -191 0 -244 l28 -28 161 0 161 0 0 -45 0
-45 -140 0 c-133 0 -140 1 -140 20 0 18 -7 20 -55 20 -46 0 -55 -3 -55 -17 0
-40 22 -93 47 -113 24 -18 39 -20 209 -20 l182 0 31 31 c30 29 31 34 31 114 0
152 -19 165 -239 165 l-151 0 0 40 0 40 140 0 c133 0 140 -1 140 -20 0 -18 7
-20 55 -20 l55 0 0 44 c0 36 -6 50 -31 75 l-31 31 -185 0 -185 0 -28 -28z"/>
<path d="M3140 2690 l0 -250 55 0 55 0 0 250 0 250 -55 0 -55 0 0 -250z"/>
<path d="M3460 2912 c-33 -33 -46 -96 -35 -169 4 -31 16 -55 35 -75 l28 -28
161 0 161 0 0 -45 0 -45 -140 0 c-133 0 -140 1 -140 20 0 18 -7 20 -55 20 -46
0 -55 -3 -55 -17 0 -40 22 -93 47 -113 24 -18 39 -20 209 -20 l182 0 31 31
c30 29 31 34 31 114 0 152 -19 165 -239 165 l-151 0 0 40 0 40 140 0 c133 0
140 -1 140 -20 0 -18 7 -20 55 -20 l55 0 0 44 c0 36 -6 50 -31 75 l-31 31
-185 0 -185 0 -28 -28z"/>
<path d="M1414 2321 c-57 -25 -84 -118 -48 -169 19 -28 65 -52 99 -52 32 0 88
28 80 40 -3 4 -19 2 -36 -7 -64 -32 -139 12 -139 82 0 66 76 114 137 86 28
-13 43 -7 26 10 -15 15 -93 21 -119 10z"/>
<path d="M3083 2290 c-3 -11 -12 -20 -19 -20 -8 0 -14 -4 -14 -10 0 -5 7 -10
15 -10 11 0 15 -12 15 -47 0 -79 32 -118 78 -97 13 6 11 8 -13 13 -29 6 -30 8
-33 69 -3 61 -2 62 23 62 14 0 25 5 25 10 0 6 -11 10 -25 10 -18 0 -25 5 -25
20 0 11 -5 20 -11 20 -6 0 -13 -9 -16 -20z"/>
<path d="M1698 2259 c-25 -14 -23 -33 1 -19 41 21 91 6 91 -27 0 -8 -13 -13
-32 -13 -70 0 -107 -42 -72 -81 19 -21 55 -25 85 -9 13 7 19 7 19 0 0 -5 5
-10 10 -10 6 0 10 30 10 69 0 61 -3 72 -22 85 -26 18 -65 20 -90 5z m92 -97
c0 -10 -5 -23 -12 -30 -17 -17 -63 -15 -78 3 -19 23 5 45 51 45 31 0 39 -4 39
-18z"/>
<path d="M1960 2185 c0 -69 3 -85 15 -85 12 0 15 13 15 60 0 57 2 62 30 78 16
9 30 20 30 25 0 12 -24 8 -48 -9 -20 -14 -22 -14 -22 0 0 9 -4 16 -10 16 -6 0
-10 -35 -10 -85z"/>
<path d="M2180 2155 c0 -70 4 -115 10 -115 6 0 10 20 10 45 l0 45 25 -16 c32
-21 89 -11 110 19 35 51 9 122 -50 133 -25 4 -43 1 -60 -10 -22 -14 -25 -15
-25 -1 0 8 -4 15 -10 15 -6 0 -10 -45 -10 -115z m130 75 c11 -11 20 -31 20
-45 0 -14 -9 -34 -20 -45 -11 -11 -31 -20 -45 -20 -14 0 -34 9 -45 20 -11 11
-20 31 -20 45 0 14 9 34 20 45 11 11 31 20 45 20 14 0 34 -9 45 -20z"/>
<path d="M2514 2258 c-24 -11 -44 -48 -44 -79 0 -30 53 -79 85 -79 31 0 65 16
65 31 0 6 -7 6 -19 -1 -35 -18 -68 -12 -91 18 l-22 27 76 3 c42 2 76 7 76 12
0 23 -24 59 -47 69 -29 13 -51 13 -79 -1z m70 -14 c9 -4 21 -15 27 -25 9 -18
5 -19 -51 -19 -46 0 -60 3 -60 15 0 26 48 43 84 29z"/>
<path d="M2770 2185 c0 -69 3 -85 15 -85 12 0 15 13 15 58 0 64 18 92 58 92
37 0 52 -26 52 -91 0 -33 4 -59 10 -59 6 0 10 28 10 65 0 52 -4 69 -20 85 -24
24 -67 26 -98 4 -20 -14 -22 -14 -22 0 0 9 -4 16 -10 16 -6 0 -10 -35 -10 -85z"/>
<path d="M3300 2185 c0 -50 4 -85 10 -85 6 0 10 20 10 44 0 61 14 94 45 102
14 3 25 10 25 15 0 14 -23 11 -48 -7 -20 -14 -22 -14 -22 0 0 9 -4 16 -10 16
-6 0 -10 -35 -10 -85z"/>
<path d="M3500 2246 c5 -14 20 -47 35 -75 14 -28 25 -59 25 -69 0 -26 -25 -46
-50 -39 -27 7 -36 -10 -10 -18 43 -14 61 4 111 111 52 110 54 114 40 114 -4 0
-23 -32 -41 -72 l-32 -72 -33 72 c-19 40 -38 72 -44 72 -7 0 -7 -8 -1 -24z"/>
<path d="M1442 1881 l32 -58 57 19 58 19 111 -112 112 -113 -17 -55 c-20 -64
-24 -57 84 -118 l64 -37 41 47 41 48 74 -26 c41 -13 108 -32 150 -40 41 -9 79
-21 82 -27 4 -6 10 -35 14 -65 l6 -53 99 0 98 0 12 65 c12 63 13 65 49 71 65
11 187 43 227 60 l39 16 40 -46 c23 -25 44 -46 47 -46 7 0 168 90 168 94 0 2
-9 29 -20 62 l-21 59 28 24 c66 56 111 99 150 145 l41 49 61 -20 61 -19 34 58
35 58 -176 0 -175 0 -87 -82 c-348 -330 -877 -328 -1225 4 l-81 78 -173 0
-173 0 33 -59z"/>
<path d="M1855 1889 c230 -236 609 -309 925 -179 90 37 191 103 265 173 l60
56 -43 1 c-37 0 -53 -8 -125 -63 -159 -121 -285 -162 -492 -162 -208 1 -321
39 -482 162 -67 51 -90 63 -120 63 l-37 0 49 -51z"/>
</g>
</svg>
